<?xml version="1.0" encoding="utf-8"?>
<!-- Generator: Adobe Illustrator 18.0.0, SVG Export Plug-In . SVG Version: 6.00 Build 0)  -->
<!DOCTYPE svg PUBLIC "-//W3C//DTD SVG 1.1//EN" "http://www.w3.org/Graphics/SVG/1.1/DTD/svg11.dtd">
<svg version="1.1" id="Layer_1" xmlns="http://www.w3.org/2000/svg" xmlns:xlink="http://www.w3.org/1999/xlink" x="0px" y="0px"
	 viewBox="0 0 18 18" enable-background="new 0 0 18 18" xml:space="preserve">
<path fill="#FFFFFF" d="M17.8,15.2l-3.4-3.4c-0.3-0.3-0.8-0.3-1.4,0l-1.6-1.6c0.8-1.1,1.3-2.4,1.3-3.9C12.8,2.9,9.9,0,6.4,0
	C2.9,0,0,2.9,0,6.4c0,3.5,2.9,6.4,6.4,6.4c1.5,0,2.8-0.5,3.9-1.3l1.6,1.6c-0.3,0.5-0.3,1.1,0,1.4l3.4,3.4c0.4,0.4,1.4,0.2,2.1-0.5
	C18,16.5,18.2,15.6,17.8,15.2L17.8,15.2z M6.4,11.3c-2.7,0-4.9-2.2-4.9-4.9c0-2.7,2.2-4.9,4.9-4.9c2.7,0,4.9,2.2,4.9,4.9
	C11.2,9.1,9.1,11.3,6.4,11.3L6.4,11.3z M6.4,11.3"/>
</svg>
